<svg xmlns="http://www.w3.org/2000/svg" viewBox="0 0 128 128" role="img" aria-labelledby="title desc">
  <title id="title">WEB TrackPigeon mark</title>
  <desc id="desc">A racing pigeon, route pin, and timing mark in TrackPigeon colors.</desc>
  <defs>
    <linearGradient id="bg" x1="17" y1="12" x2="112" y2="118" gradientUnits="userSpaceOnUse">
      <stop stop-color="#102A43"/>
      <stop offset=".58" stop-color="#0F766E"/>
      <stop offset="1" stop-color="#0B1F33"/>
    </linearGradient>
    <linearGradient id="wing" x1="42" y1="37" x2="92" y2="84" gradientUnits="userSpaceOnUse">
      <stop stop-color="#FFFFFF"/>
      <stop offset=".72" stop-color="#E6F6F3"/>
      <stop offset="1" stop-color="#9BE7D9"/>
    </linearGradient>
    <linearGradient id="gold" x1="42" y1="92" x2="90" y2="116" gradientUnits="userSpaceOnUse">
      <stop stop-color="#FFD166"/>
      <stop offset="1" stop-color="#F59E0B"/>
    </linearGradient>
    <filter id="shadow" x="-20%" y="-20%" width="140%" height="150%" color-interpolation-filters="sRGB">
      <feDropShadow dx="0" dy="10" stdDeviation="10" flood-color="#061423" flood-opacity=".28"/>
    </filter>
  </defs>
  <rect width="128" height="128" rx="28" fill="url(#bg)"/>
  <path d="M24 83c13-5 24-5 37 0 15 6 32 5 45-5" fill="none" stroke="#F59E0B" stroke-width="7" stroke-linecap="round" stroke-dasharray="1 15"/>
  <g filter="url(#shadow)">
    <path d="M32 76c18-29 42-42 75-45-8 19-22 32-42 38 11 5 21 11 30 20-26 1-48-7-63-23Z" fill="url(#wing)"/>
    <path d="M38 73c11-10 25-18 43-23-9 14-21 23-36 28l-7-5Z" fill="#BFF4E9"/>
    <path d="M79 35c9-8 19-10 31-8-6 8-14 12-25 13l-6-5Z" fill="#FFFFFF"/>
    <path d="M95 29l17-9-7 19-10-10Z" fill="#F59E0B"/>
    <circle cx="82" cy="42" r="4" fill="#102A43"/>
  </g>
  <path d="M42 99h44" stroke="url(#gold)" stroke-width="8" stroke-linecap="round"/>
  <path d="M92 94l10 5-10 5" fill="none" stroke="#FFD166" stroke-width="6" stroke-linecap="round" stroke-linejoin="round"/>
  <circle cx="30" cy="96" r="8" fill="#FFFFFF" opacity=".96"/>
  <circle cx="30" cy="96" r="3" fill="#0F766E"/>
</svg>
