<svg xmlns="http://www.w3.org/2000/svg" viewBox="0 0 420 112" role="img" aria-labelledby="title desc">
  <title id="title">WEB TrackPigeon logo</title>
  <desc id="desc">WEB TrackPigeon brand logo with racing pigeon mark.</desc>
  <defs>
    <linearGradient id="markBg" x1="12" y1="10" x2="94" y2="98" gradientUnits="userSpaceOnUse">
      <stop stop-color="#102A43"/>
      <stop offset=".58" stop-color="#0F766E"/>
      <stop offset="1" stop-color="#0B1F33"/>
    </linearGradient>
    <linearGradient id="wingFill" x1="28" y1="30" x2="80" y2="70" gradientUnits="userSpaceOnUse">
      <stop stop-color="#FFFFFF"/>
      <stop offset=".68" stop-color="#E6F6F3"/>
      <stop offset="1" stop-color="#9BE7D9"/>
    </linearGradient>
    <linearGradient id="textFill" x1="132" y1="28" x2="396" y2="82" gradientUnits="userSpaceOnUse">
      <stop stop-color="#FFFFFF"/>
      <stop offset=".72" stop-color="#EAF7F5"/>
      <stop offset="1" stop-color="#BFF4E9"/>
    </linearGradient>
    <filter id="markShadow" x="-20%" y="-20%" width="140%" height="150%" color-interpolation-filters="sRGB">
      <feDropShadow dx="0" dy="10" stdDeviation="10" flood-color="#061423" flood-opacity=".24"/>
    </filter>
  </defs>
  <g filter="url(#markShadow)">
    <rect x="10" y="10" width="92" height="92" rx="22" fill="url(#markBg)"/>
    <path d="M25 70c13-5 23-4 34 1 13 5 27 4 40-4" fill="none" stroke="#F59E0B" stroke-width="5.5" stroke-linecap="round" stroke-dasharray="1 12"/>
    <path d="M30 67c14-23 33-33 61-36-6 15-18 26-35 31 9 4 18 9 25 16-21 1-39-6-51-19Z" fill="url(#wingFill)"/>
    <path d="M36 64c9-8 20-14 35-18-7 11-17 18-29 22l-6-4Z" fill="#BFF4E9"/>
    <path d="M66 32c8-6 16-8 26-6-5 6-12 9-20 10l-6-4Z" fill="#FFFFFF"/>
    <path d="M79 27l15-8-6 17-9-9Z" fill="#F59E0B"/>
    <circle cx="69" cy="38" r="3.2" fill="#102A43"/>
    <path d="M40 85h34" stroke="#FFD166" stroke-width="6" stroke-linecap="round"/>
    <path d="M80 81l8 4-8 4" fill="none" stroke="#FFD166" stroke-width="5" stroke-linecap="round" stroke-linejoin="round"/>
  </g>
  <g font-family="Rajdhani, Nunito, Arial, sans-serif">
    <rect x="126" y="22" width="58" height="28" rx="8" fill="#F59E0B"/>
    <text x="155" y="41" text-anchor="middle" font-size="18" font-weight="800" letter-spacing=".8" fill="#102A43">WEB</text>
    <text x="126" y="80" font-size="48" font-weight="800" letter-spacing="0" fill="url(#textFill)">TrackPigeon</text>
    <path d="M127 91h196" stroke="#F59E0B" stroke-width="4" stroke-linecap="round"/>
    <path d="M336 91h36" stroke="#0F766E" stroke-width="4" stroke-linecap="round"/>
  </g>
</svg>
